<svg version="1.1" id="Layer_1" xmlns="http://www.w3.org/2000/svg" xmlns:xlink="http://www.w3.org/1999/xlink" x="0px" y="0px"
	 width="100%" viewBox="0 0 1024 1024" enable-background="new 0 0 1024 1024" xml:space="preserve">
<path fill="#75AADB" opacity="1.000000" stroke="none" 
	d="
M982.000000,1025.000000 
	C669.641785,1025.000000 357.283508,1025.000000 44.098312,1024.897217 
	C21.140654,1020.852905 7.247621,1008.077026 1.828661,986.187561 
	C1.720376,985.750122 1.283569,985.394043 1.000009,985.000000 
	C1.000000,884.641785 1.000000,784.283508 1.459704,683.461548 
	C342.946259,682.998596 683.973145,682.999268 1025.000000,683.000000 
	C1025.000000,782.691589 1025.000000,882.383118 1024.999512,982.933594 
	C1022.590454,992.260376 1019.926147,1000.582764 1014.076111,1007.495239 
	C1005.621887,1017.484924 994.751343,1022.939087 982.000000,1025.000000 
z"/>
<path fill="#75AADB" opacity="1.000000" stroke="none" 
	d="
M43.000000,1.000000 
	C356.024902,1.000000 669.049805,1.000000 982.865112,1.179178 
	C993.500732,3.167156 1002.305847,7.003685 1009.723877,13.960466 
	C1018.479065,22.171206 1022.944641,32.443443 1025.000000,44.000000 
	C1025.000000,143.358231 1025.000000,242.716476 1024.540283,342.538452 
	C683.053711,343.001434 342.026855,343.000732 1.000000,343.000000 
	C1.000000,242.641754 1.000000,142.283524 1.286878,41.233974 
	C4.825356,26.110758 12.310018,14.526327 25.432529,7.415854 
	C30.855082,4.477626 37.118832,3.091845 43.000000,1.000000 
z"/>
<path fill="#FFFFFF" opacity="1.000000" stroke="none" 
	d="
M1.000000,343.459717 
	C342.026855,343.000732 683.053711,343.001434 1024.540283,343.001099 
	C1025.000000,456.026855 1025.000000,569.053711 1025.000000,682.540283 
	C683.973145,682.999268 342.946259,682.998596 1.459704,682.998901 
	C1.000000,569.973145 1.000000,456.946259 1.000000,343.459717 
M473.247253,661.258423 
	C480.383423,662.821289 487.480225,665.466309 494.663757,665.727539 
	C510.907776,666.318359 527.213867,667.037048 543.377747,663.665894 
	C622.519348,647.160034 680.729187,571.707031 663.393188,482.673401 
	C648.152954,404.402679 574.601746,348.678558 489.442230,361.419434 
	C409.703827,373.349152 347.293518,447.051575 361.624054,536.696411 
	C371.825470,600.511536 410.434937,641.949402 473.247253,661.258423 
z"/>
<path fill="#FDFEFE" opacity="1.000000" stroke="none" 
	d="
M1025.000000,43.531342 
	C1022.944641,32.443443 1018.479065,22.171206 1009.723877,13.960466 
	C1002.305847,7.003685 993.500732,3.167156 983.327759,1.179178 
	C996.927551,1.000000 1010.855042,1.000000 1025.000000,1.000000 
	C1025.000000,15.020145 1025.000000,29.041414 1025.000000,43.531342 
z"/>
<path fill="#FDFEFE" opacity="1.000000" stroke="none" 
	d="
M982.468628,1025.000000 
	C994.751343,1022.939087 1005.621887,1017.484924 1014.076111,1007.495239 
	C1019.926147,1000.582764 1022.590454,992.260376 1024.999512,983.396240 
	C1025.000000,996.927551 1025.000000,1010.855042 1025.000000,1025.000000 
	C1010.979858,1025.000000 996.958557,1025.000000 982.468628,1025.000000 
z"/>
<path fill="#FDFEFE" opacity="1.000000" stroke="none" 
	d="
M42.531342,1.000000 
	C37.118832,3.091845 30.855082,4.477626 25.432529,7.415854 
	C12.310018,14.526327 4.825356,26.110758 1.286878,40.771336 
	C1.000000,27.738211 1.000000,14.476422 1.000000,1.000000 
	C14.686813,1.000000 28.374748,1.000000 42.531342,1.000000 
z"/>
<path fill="#FDFEFE" opacity="1.000000" stroke="none" 
	d="
M1.000009,985.468628 
	C1.283569,985.394043 1.720376,985.750122 1.828661,986.187561 
	C7.247621,1008.077026 21.140654,1020.852905 43.635674,1024.897217 
	C29.742645,1025.000000 15.485291,1025.000000 1.000000,1025.000000 
	C1.000000,1011.979980 1.000000,998.958679 1.000009,985.468628 
z"/>
<path fill="#FFDE59" opacity="1.000000" stroke="none" 
	d="
M472.851013,661.162231 
	C410.434937,641.949402 371.825470,600.511536 361.624054,536.696411 
	C347.293518,447.051575 409.703827,373.349152 489.442230,361.419434 
	C574.601746,348.678558 648.152954,404.402679 663.393188,482.673401 
	C680.729187,571.707031 622.519348,647.160034 543.377747,663.665894 
	C527.213867,667.037048 510.907776,666.318359 494.663757,665.727539 
	C487.480225,665.466309 480.383423,662.821289 472.851013,661.162231 
z"/>
</svg>